<svg width="138" height="83" viewBox="0 0 138 83" fill="none" xmlns="http://www.w3.org/2000/svg">
<rect x="0.50708" y="0.689209" width="137.281" height="82.1887" rx="41.0944" fill="#D9D9D9"/>
<path d="M127.904 82.8779H10.3913C4.96873 82.8779 0.50708 78.563 0.50708 73.2208V10.3464C0.50708 5.00412 4.96873 0.689209 10.3913 0.689209H127.904C133.327 0.689209 137.788 5.00412 137.788 10.3464V73.2208C137.788 78.563 133.327 82.8779 127.904 82.8779ZM33.5233 63.6321V38.5645L46.7023 54.6598L59.8813 38.5645V63.6321H73.1289V19.9351H59.8813L46.7023 36.0304L33.5233 19.9351H20.3442V63.6321H33.5233ZM121.932 41.7836H108.753V19.9351H95.5745V41.7836H82.3268L102.164 64.2485L121.932 41.7836Z" fill="url(#paint0_linear_649_217)"/>
<defs>
<linearGradient id="paint0_linear_649_217" x1="137.788" y1="41.7836" x2="-31.8582" y2="41.7836" gradientUnits="userSpaceOnUse">
<stop stop-color="#6D16FC"/>
<stop offset="1" stop-color="#FF0063"/>
</linearGradient>
</defs>
</svg>
