<svg width="138" height="83" viewBox="0 0 138 83" fill="none" xmlns="http://www.w3.org/2000/svg">
<g clip-path="url(#clip0_733_32)">
<rect x="10.8262" y="10.9316" width="116.347" height="61.137" fill="white"/>
<path d="M127.904 82.8779H10.3911C4.96849 82.8779 0.506836 78.563 0.506836 73.2208V10.3464C0.506836 5.00412 4.96849 0.689209 10.3911 0.689209H127.904C133.327 0.689209 137.788 5.00412 137.788 10.3464V73.2208C137.788 78.563 133.327 82.8779 127.904 82.8779ZM33.5231 63.6321V38.5645L46.7021 54.6598L59.8811 38.5645V63.6321H73.1287V19.9351H59.8811L46.7021 36.0304L33.5231 19.9351H20.344V63.6321H33.5231ZM121.932 41.7836H108.753V19.9351H95.5743V41.7836H82.3266L102.164 64.2485L121.932 41.7836Z" fill="url(#paint0_linear_733_32)"/>
</g>
<defs>
<linearGradient id="paint0_linear_733_32" x1="137.788" y1="41.7836" x2="-31.8584" y2="41.7836" gradientUnits="userSpaceOnUse">
<stop stop-color="#6D16FC"/>
<stop offset="1" stop-color="#FF0063"/>
</linearGradient>
<clipPath id="clip0_733_32">
<rect width="138" height="83" fill="white"/>
</clipPath>
</defs>
</svg>
